<svg width="59" height="12" viewBox="0 0 59 12" fill="none" xmlns="http://www.w3.org/2000/svg">
<rect width="33" height="12" rx="3" fill="#FF6B6B"/>
<path d="M7.024 3.288C7.59467 3.288 8.08267 3.408 8.488 3.648C8.89867 3.88267 9.21067 4.21867 9.424 4.656C9.64267 5.088 9.752 5.6 9.752 6.192C9.752 6.784 9.64267 7.29867 9.424 7.736C9.21067 8.168 8.89867 8.504 8.488 8.744C8.08267 8.97867 7.59467 9.096 7.024 9.096C6.672 9.096 6.18933 9.06933 5.576 9.016L5.512 8.848C5.58133 8.688 5.62667 8.51467 5.648 8.328C5.67467 8.136 5.688 7.85867 5.688 7.496V4.888C5.688 4.52533 5.67467 4.25067 5.648 4.064C5.62667 3.872 5.58133 3.696 5.512 3.536L5.576 3.368C6.18933 3.31467 6.672 3.288 7.024 3.288ZM7.04 8.504C7.68 8.504 8.168 8.30667 8.504 7.912C8.84533 7.512 9.016 6.93867 9.016 6.192C9.016 5.44533 8.84533 4.87467 8.504 4.48C8.168 4.08 7.68 3.88 7.04 3.88C6.82667 3.88 6.568 3.89333 6.264 3.92C6.31733 4.048 6.352 4.18933 6.368 4.344C6.384 4.49333 6.392 4.67467 6.392 4.888V7.496C6.392 7.70933 6.384 7.89333 6.368 8.048C6.352 8.19733 6.31733 8.336 6.264 8.464C6.568 8.49067 6.82667 8.504 7.04 8.504ZM12.2692 9.096C11.9012 9.096 11.5759 9.01067 11.2932 8.84C11.0105 8.66933 10.7919 8.424 10.6372 8.104C10.4825 7.784 10.4052 7.41067 10.4052 6.984C10.4052 6.552 10.4825 6.17333 10.6372 5.848C10.7972 5.52267 11.0159 5.272 11.2932 5.096C11.5759 4.91467 11.9012 4.824 12.2692 4.824C12.7919 4.824 13.1999 5.00267 13.4932 5.36C13.7919 5.712 13.9412 6.192 13.9412 6.8C13.9412 6.94933 13.9199 7.05067 13.8772 7.104C13.8399 7.15733 13.7599 7.184 13.6372 7.184H11.0612C11.0612 7.60533 11.1679 7.94133 11.3812 8.192C11.5999 8.44267 11.8905 8.568 12.2532 8.568C12.5199 8.568 12.7599 8.50933 12.9732 8.392C13.1919 8.27467 13.3652 8.12 13.4932 7.928C13.6532 7.98667 13.7332 8.10667 13.7332 8.288C13.7332 8.432 13.6612 8.56533 13.5172 8.688C13.3732 8.81067 13.1865 8.90933 12.9572 8.984C12.7332 9.05867 12.5039 9.096 12.2692 9.096ZM13.2852 6.648C13.2745 6.216 13.1892 5.89067 13.0292 5.672C12.8692 5.448 12.6265 5.336 12.3012 5.336C11.9599 5.336 11.6852 5.45333 11.4772 5.688C11.2692 5.92267 11.1359 6.264 11.0772 6.712L13.2852 6.648ZM15.0429 9.048C14.9629 9.048 14.8883 9.03733 14.8189 9.016V3.68C14.8189 3.53067 14.8563 3.41333 14.9309 3.328C15.0056 3.23733 15.1123 3.192 15.2509 3.192C15.3309 3.192 15.4056 3.20267 15.4749 3.224V8.56C15.4749 8.70933 15.4376 8.82933 15.3629 8.92C15.2883 9.00533 15.1816 9.048 15.0429 9.048ZM18.2379 9.096C17.8699 9.096 17.5446 9.01067 17.2619 8.84C16.9793 8.66933 16.7606 8.424 16.6059 8.104C16.4513 7.784 16.3739 7.41067 16.3739 6.984C16.3739 6.552 16.4513 6.17333 16.6059 5.848C16.7659 5.52267 16.9846 5.272 17.2619 5.096C17.5446 4.91467 17.8699 4.824 18.2379 4.824C18.7606 4.824 19.1686 5.00267 19.4619 5.36C19.7606 5.712 19.9099 6.192 19.9099 6.8C19.9099 6.94933 19.8886 7.05067 19.8459 7.104C19.8086 7.15733 19.7286 7.184 19.6059 7.184H17.0299C17.0299 7.60533 17.1366 7.94133 17.3499 8.192C17.5686 8.44267 17.8593 8.568 18.2219 8.568C18.4886 8.568 18.7286 8.50933 18.9419 8.392C19.1606 8.27467 19.3339 8.12 19.4619 7.928C19.6219 7.98667 19.7019 8.10667 19.7019 8.288C19.7019 8.432 19.6299 8.56533 19.4859 8.688C19.3419 8.81067 19.1553 8.90933 18.9259 8.984C18.7019 9.05867 18.4726 9.096 18.2379 9.096ZM19.2539 6.648C19.2433 6.216 19.1579 5.89067 18.9979 5.672C18.8379 5.448 18.5953 5.336 18.2699 5.336C17.9286 5.336 17.6539 5.45333 17.4459 5.688C17.2379 5.92267 17.1046 6.264 17.0459 6.712L19.2539 6.648ZM22.5397 8.384C22.5984 8.41067 22.6437 8.448 22.6757 8.496C22.7077 8.544 22.7237 8.6 22.7237 8.664C22.7237 8.78667 22.6624 8.88533 22.5397 8.96C22.417 9.02933 22.265 9.064 22.0837 9.064C21.7637 9.064 21.5104 8.952 21.3237 8.728C21.137 8.504 21.0437 8.2 21.0437 7.816V5.432H20.4437C20.417 5.37867 20.4037 5.32 20.4037 5.256C20.4037 5.14933 20.4384 5.06667 20.5077 5.008C20.577 4.94933 20.6677 4.92 20.7797 4.92H21.0437V4.336C21.0437 4.18667 21.081 4.06933 21.1557 3.984C21.2304 3.89333 21.337 3.848 21.4757 3.848C21.5557 3.848 21.6304 3.85867 21.6997 3.88V4.92H22.6197C22.6464 4.97333 22.6597 5.032 22.6597 5.096C22.6597 5.20267 22.625 5.28533 22.5557 5.344C22.4864 5.40267 22.3957 5.432 22.2837 5.432H21.6997V7.816C21.6997 8.02933 21.737 8.192 21.8117 8.304C21.8917 8.41067 22.0144 8.464 22.1797 8.464C22.297 8.464 22.417 8.43733 22.5397 8.384ZM24.9567 9.096C24.5887 9.096 24.2634 9.01067 23.9807 8.84C23.698 8.66933 23.4794 8.424 23.3247 8.104C23.17 7.784 23.0927 7.41067 23.0927 6.984C23.0927 6.552 23.17 6.17333 23.3247 5.848C23.4847 5.52267 23.7034 5.272 23.9807 5.096C24.2634 4.91467 24.5887 4.824 24.9567 4.824C25.4794 4.824 25.8874 5.00267 26.1807 5.36C26.4794 5.712 26.6287 6.192 26.6287 6.8C26.6287 6.94933 26.6074 7.05067 26.5647 7.104C26.5274 7.15733 26.4474 7.184 26.3247 7.184H23.7487C23.7487 7.60533 23.8554 7.94133 24.0687 8.192C24.2874 8.44267 24.578 8.568 24.9407 8.568C25.2074 8.568 25.4474 8.50933 25.6607 8.392C25.8794 8.27467 26.0527 8.12 26.1807 7.928C26.3407 7.98667 26.4207 8.10667 26.4207 8.288C26.4207 8.432 26.3487 8.56533 26.2047 8.688C26.0607 8.81067 25.874 8.90933 25.6447 8.984C25.4207 9.05867 25.1914 9.096 24.9567 9.096ZM25.9727 6.648C25.962 6.216 25.8767 5.89067 25.7167 5.672C25.5567 5.448 25.314 5.336 24.9887 5.336C24.6474 5.336 24.3727 5.45333 24.1647 5.688C23.9567 5.92267 23.8234 6.264 23.7647 6.712L25.9727 6.648Z" fill="white"/>
</svg>
