<svg fill="none" xmlns="http://www.w3.org/2000/svg">
<g filter="url(#filter0_f_406_2)">
<path d="M10.5489 3.92705C10.8483 3.00574 12.1517 3.00574 12.4511 3.92705L13.4084 6.87336C13.5422 7.28538 13.9262 7.56434 14.3594 7.56434H17.4574C18.4261 7.56434 18.8289 8.80395 18.0451 9.37336L15.5389 11.1943C15.1884 11.4489 15.0417 11.9003 15.1756 12.3123L16.1329 15.2586C16.4323 16.1799 15.3778 16.946 14.5941 16.3766L12.0878 14.5557C11.7373 14.3011 11.2627 14.3011 10.9122 14.5557L8.40594 16.3766C7.62222 16.946 6.56774 16.1799 6.8671 15.2586L7.82441 12.3123C7.95828 11.9003 7.81162 11.4489 7.46114 11.1943L4.95486 9.37335C4.17115 8.80395 4.57392 7.56434 5.54265 7.56434H8.64058C9.0738 7.56434 9.45776 7.28538 9.59163 6.87336L10.5489 3.92705Z" stroke="#EAA5A5" stroke-width="2"/>
</g>
<g filter="url(#filter1_d_406_2)">
<path d="M10.5489 3.92705C10.8483 3.00574 12.1517 3.00574 12.4511 3.92705L13.4084 6.87336C13.5422 7.28538 13.9262 7.56434 14.3594 7.56434H17.4574C18.4261 7.56434 18.8289 8.80395 18.0451 9.37336L15.5389 11.1943C15.1884 11.4489 15.0417 11.9003 15.1756 12.3123L16.1329 15.2586C16.4323 16.1799 15.3778 16.946 14.5941 16.3766L12.0878 14.5557C11.7373 14.3011 11.2627 14.3011 10.9122 14.5557L8.40594 16.3766C7.62222 16.946 6.56774 16.1799 6.8671 15.2586L7.82441 12.3123C7.95828 11.9003 7.81162 11.4489 7.46114 11.1943L4.95486 9.37335C4.17115 8.80395 4.57392 7.56434 5.54265 7.56434H8.64058C9.0738 7.56434 9.45776 7.28538 9.59163 6.87336L10.5489 3.92705Z" stroke="white" shape-rendering="crispEdges"/>
</g>
<defs>
<filter id="filter0_f_406_2" x="1.53882" y="0.236328" width="19.9224" height="19.3408" filterUnits="userSpaceOnUse" color-interpolation-filters="sRGB">
<feFlood flood-opacity="0" result="BackgroundImageFix"/>
<feBlend mode="normal" in="SourceGraphic" in2="BackgroundImageFix" result="shape"/>
<feGaussianBlur stdDeviation="1" result="effect1_foregroundBlur_406_2"/>
</filter>
<filter id="filter1_d_406_2" x="0.0397949" y="2.73633" width="22.9204" height="22.3379" filterUnits="userSpaceOnUse" color-interpolation-filters="sRGB">
<feFlood flood-opacity="0" result="BackgroundImageFix"/>
<feColorMatrix in="SourceAlpha" type="matrix" values="0 0 0 0 0 0 0 0 0 0 0 0 0 0 0 0 0 0 127 0" result="hardAlpha"/>
<feOffset dy="4"/>
<feGaussianBlur stdDeviation="2"/>
<feComposite in2="hardAlpha" operator="out"/>
<feColorMatrix type="matrix" values="0 0 0 0 0 0 0 0 0 0 0 0 0 0 0 0 0 0 0.25 0"/>
<feBlend mode="normal" in2="BackgroundImageFix" result="effect1_dropShadow_406_2"/>
<feBlend mode="normal" in="SourceGraphic" in2="effect1_dropShadow_406_2" result="shape"/>
</filter>
</defs>
</svg>
