<svg width="24" height="18" viewBox="0 0 24 18" fill="none" xmlns="http://www.w3.org/2000/svg">
<path fill-rule="evenodd" clip-rule="evenodd" d="M2 1.42188H14.8688C15.4211 1.42188 15.8688 1.86959 15.8688 2.42188V2.52051C16.1284 2.51722 16.3894 2.52654 16.6511 2.54886L16.8688 2.56742V2.42188C16.8688 1.31731 15.9734 0.421875 14.8688 0.421875H2C0.895431 0.421875 0 1.31731 0 2.42188V15.2907C0 16.3953 0.895431 17.2907 2 17.2907H14.8688C15.9734 17.2907 16.8688 16.3953 16.8688 15.2907V4.57467L16.4812 4.54163C16.2763 4.52416 16.0719 4.5173 15.8688 4.52075V15.2907C15.8688 15.843 15.4211 16.2907 14.8688 16.2907H2C1.44772 16.2907 1 15.843 1 15.2907V2.42188C1 1.86959 1.44772 1.42188 2 1.42188Z" fill="#858585"/>
<path d="M5.8392 10.8023L6.66209 8.33367C6.97428 7.39712 7.50023 6.54611 8.1983 5.84805V5.84805C9.19266 4.85368 10.4886 4.21697 11.8833 4.03751L13.6248 3.81343L19.7158 3.81343" stroke="#858585" stroke-linecap="round"/>
<path d="M19.7599 6.56103L20.8426 6.02986L23.0079 4.96752L21.9456 2.80215L21.4144 1.71946" stroke="#858585" stroke-linecap="round"/>
</svg>
