<svg width="23" height="21" viewBox="0 0 23 21" fill="none" xmlns="http://www.w3.org/2000/svg">
<mask id="path-1-inside-1_163_1597" fill="white">
<path fill-rule="evenodd" clip-rule="evenodd" d="M22.4545 10.7466L11.2272 0L0 10.7466H3.45448V20.5166H18.4545V10.7466H22.4545Z"/>
</mask>
<path fill-rule="evenodd" clip-rule="evenodd" d="M22.4545 10.7466L11.2272 0L0 10.7466H3.45448V20.5166H18.4545V10.7466H22.4545Z" fill="black"/>
<path d="M11.2272 0L11.9187 -0.722402L11.2272 -1.38427L10.5358 -0.722402L11.2272 0ZM22.4545 10.7466V11.7466H24.9454L23.146 10.0242L22.4545 10.7466ZM0 10.7466L-0.691473 10.0242L-2.49092 11.7466H0V10.7466ZM3.45448 10.7466H4.45448V9.74656H3.45448V10.7466ZM3.45448 20.5166H2.45448V21.5166H3.45448V20.5166ZM18.4545 20.5166V21.5166H19.4545V20.5166H18.4545ZM18.4545 10.7466V9.74656H17.4545V10.7466H18.4545ZM10.5358 0.722402L21.763 11.469L23.146 10.0242L11.9187 -0.722402L10.5358 0.722402ZM0.691473 11.469L11.9187 0.722402L10.5358 -0.722402L-0.691473 10.0242L0.691473 11.469ZM3.45448 9.74656H0V11.7466H3.45448V9.74656ZM4.45448 20.5166V10.7466H2.45448V20.5166H4.45448ZM18.4545 19.5166H3.45448V21.5166H18.4545V19.5166ZM17.4545 10.7466V20.5166H19.4545V10.7466H17.4545ZM22.4545 9.74656H18.4545V11.7466H22.4545V9.74656Z" fill="black" mask="url(#path-1-inside-1_163_1597)"/>
</svg>
