<svg width="23" height="23" viewBox="0 0 23 23" fill="none" xmlns="http://www.w3.org/2000/svg">
<path fill-rule="evenodd" clip-rule="evenodd" d="M12.3703 1.3986C11.9873 2.07516 11.0127 2.07516 10.6297 1.3986L10.1254 0.507537C9.89129 0.0939629 9.39847 -0.0977381 8.94645 0.048948L7.9463 0.373507L6.86079 0.725768C6.44859 0.859532 6.16946 1.24358 6.16946 1.67694V2.53612C6.16946 3.20149 5.53178 3.6813 4.89244 3.49699L3.96786 3.23043C3.56362 3.11389 3.12967 3.26282 2.88218 3.60303L2.1963 4.54587L1.55475 5.42779C1.28607 5.79713 1.30177 6.30158 1.59291 6.65349L2.16207 7.34147C2.61969 7.89463 2.36264 8.73548 1.67395 8.9382L0.717613 9.21972C0.292141 9.34496 0 9.7355 0 10.179V11.2969V12.4148C0 12.8583 0.29215 13.2488 0.717631 13.3741L1.67393 13.6556C2.36263 13.8583 2.61969 14.6991 2.16208 15.2523L1.59289 15.9403C1.30177 16.2922 1.28607 16.7967 1.55474 17.166L2.1963 18.0479L2.87103 18.9754C3.12396 19.3231 3.57083 19.4702 3.98083 19.3407L4.72851 19.1046C5.33917 18.9118 5.9712 19.3346 6.02598 19.9727L6.11271 20.9828C6.1471 21.3833 6.418 21.7243 6.80038 21.8484L7.9463 22.2203L9.06718 22.584C9.46209 22.7122 9.89511 22.583 10.1552 22.2594L10.7206 21.5561C11.1209 21.0582 11.8791 21.0582 12.2794 21.5561L12.8448 22.2594C13.1049 22.583 13.5379 22.7122 13.9328 22.584L15.0537 22.2203L16.1392 21.868C16.5514 21.7343 16.8305 21.3502 16.8305 20.9169V20.0577C16.8305 19.3923 17.4682 18.9125 18.1076 19.0968L19.0321 19.3634C19.4364 19.4799 19.8703 19.331 20.1178 18.9908L20.8037 18.0479L21.3497 17.2974C21.6601 16.8706 21.5855 16.2761 21.1792 15.9393L20.5041 15.3796C19.8655 14.8501 20.1121 13.8181 20.9211 13.6345L22.2213 13.3395C22.6767 13.2362 23 12.8313 23 12.3643V11.2969V10.2295C23 9.76244 22.6767 9.35761 22.2213 9.25426L20.9211 8.95923C20.1121 8.77566 19.8655 7.74363 20.5041 7.21417L21.1792 6.65451C21.5855 6.3177 21.6601 5.72315 21.3497 5.29639L20.8037 4.54587L20.1178 3.60303C19.8703 3.26282 19.4364 3.11389 19.0321 3.23043L18.1076 3.49699C17.4682 3.6813 16.8305 3.20149 16.8305 2.53612V1.67694C16.8305 1.24358 16.5514 0.859532 16.1392 0.725768L15.0537 0.373507L14.0535 0.0489485C13.6015 -0.0977378 13.1087 0.093964 12.8746 0.507539L12.3703 1.3986ZM11.5 18C15.0899 18 18 15.0899 18 11.5C18 7.91015 15.0899 5.00001 11.5 5.00001C7.91015 5.00001 5 7.91015 5 11.5C5 15.0899 7.91015 18 11.5 18Z" fill="black"/>
</svg>
