<svg width="18" height="18" viewBox="0 0 18 18" fill="none" xmlns="http://www.w3.org/2000/svg">
<path d="M0.5 1C0.5 0.723858 0.723858 0.5 1 0.5H3.49477C3.77092 0.5 3.99477 0.723858 3.99477 1V5.09677C3.99477 5.9252 4.66635 6.59677 5.49477 6.59677H11.7317C12.5601 6.59677 13.2317 5.9252 13.2317 5.09677V0.932875C13.2317 0.693804 13.4255 0.5 13.6646 0.5C13.7788 0.5 13.8884 0.545127 13.9694 0.625549L17.3478 3.97666C17.4437 4.07181 17.497 4.20173 17.4956 4.33684L17.364 17.0052C17.3611 17.2793 17.1381 17.5 16.864 17.5H1C0.723858 17.5 0.5 17.2761 0.5 17V1Z" stroke="#858585"/>
<rect x="5.64282" y="0.5" width="5.85714" height="4.14286" rx="0.5" stroke="#858585"/>
<rect x="3.07153" y="9.07129" width="11" height="6.71429" rx="0.5" stroke="#858585"/>
<line x1="4.78564" y1="11.5" x2="12.3571" y2="11.5" stroke="#858585" stroke-linecap="round"/>
<line x1="4.78564" y1="13.2144" x2="12.3571" y2="13.2144" stroke="#858585" stroke-linecap="round"/>
</svg>
