<svg width="22" height="21" viewBox="0 0 22 21" fill="none" xmlns="http://www.w3.org/2000/svg">
<path fill-rule="evenodd" clip-rule="evenodd" d="M2 1H15.875C16.4273 1 16.875 1.44772 16.875 2V2.75H17.875V2C17.875 0.895431 16.9796 0 15.875 0H2C0.895431 0 0 0.895431 0 2V15.875C0 16.9796 0.895431 17.875 2 17.875H4.125V16.875H2C1.44772 16.875 1 16.4273 1 15.875V2C1 1.44772 1.44772 1 2 1Z" fill="black"/>
<rect x="4.625" y="3.25" width="16.875" height="16.875" rx="1.5" stroke="black"/>
<path d="M8.42693 11.1771L11.5308 14.6348L18.7597 7.40593" stroke="black" stroke-linecap="round"/>
</svg>
